<svg width="128" xmlns="http://www.w3.org/2000/svg" height="128" id="screenshot-d1efd614-2e8b-8057-8007-4b5674d725f7" viewBox="0 0 128 128" xmlns:xlink="http://www.w3.org/1999/xlink" fill="none" version="1.1"><g id="shape-d1efd614-2e8b-8057-8007-4b5674d725f7" data-testid="LOGO"><defs><clipPath id="frame-clip-d1efd614-2e8b-8057-8007-4b5674d725f7-render-1" class="frame-clip frame-clip-def"><rect rx="0" ry="0" x="0" y="0" width="128" height="128" transform="matrix(1.000000, 0.000000, 0.000000, 1.000000, 0.000000, 0.000000)"/></clipPath></defs><g clip-path="url(#frame-clip-d1efd614-2e8b-8057-8007-4b5674d725f7-render-1)" fill="none"><g class="fills" id="fills-d1efd614-2e8b-8057-8007-4b5674d725f7"><rect rx="0" ry="0" x="0" y="0" width="128" height="128" transform="matrix(1.000000, 0.000000, 0.000000, 1.000000, 0.000000, 0.000000)" class="frame-background"/></g><g class="frame-children"><g id="shape-d1efd614-2e8b-8057-8007-4b4bbb36bb7f" data-testid="Board"><g fill="none"><g class="fills" id="fills-d1efd614-2e8b-8057-8007-4b4bbb36bb7f"><rect width="127.99999999999989" height="128" class="frame-background" x="-5.684341886080802e-14" transform="matrix(1.000000, 0.000000, 0.000000, 1.000000, 0.000000, 0.000000)" style="fill: rgb(10, 13, 62); fill-opacity: 0;" ry="16" rx="16" y="0"/></g><g class="frame-children"><g id="shape-d1efd614-2e8b-8057-8007-4b4970206ccb" data-testid="svg"><defs><filter id="filter-render-3" x="-0.3364485981308411" y="-0.3956043956043956" width="1.6728971962616823" height="1.7912087912087913" filterUnits="objectBoundingBox" color-interpolation-filters="sRGB"><feFlood flood-opacity="0" result="BackgroundImageFix"/><feColorMatrix in="SourceAlpha" type="matrix" values="0 0 0 0 0 0 0 0 0 0 0 0 0 0 0 0 0 0 127 0"/><feMorphology radius="2" operator="dilate" in="SourceAlpha" result="filter_d1efd614-2e8b-8057-8007-4b627d33c8f3"/><feOffset dx="0" dy="0"/><feGaussianBlur stdDeviation="2"/><feColorMatrix type="matrix" values="0 0 0 0 0.8784313725490196 0 0 0 0 0.9490196078431372 0 0 0 0 1 0 0 0 0.2 0"/><feBlend mode="normal" in2="BackgroundImageFix" result="filter_d1efd614-2e8b-8057-8007-4b627d33c8f3"/><feBlend mode="normal" in="SourceGraphic" in2="filter_d1efd614-2e8b-8057-8007-4b627d33c8f3" result="shape"/></filter><filter id="filter-shadow-render-3" x="-0.3364485981308411" y="-0.3956043956043956" width="1.6728971962616823" height="1.7912087912087913" filterUnits="objectBoundingBox" color-interpolation-filters="sRGB"><feFlood flood-opacity="0" result="BackgroundImageFix"/><feColorMatrix in="SourceAlpha" type="matrix" values="0 0 0 0 0 0 0 0 0 0 0 0 0 0 0 0 0 0 127 0"/><feMorphology radius="2" operator="dilate" in="SourceAlpha" result="filter_d1efd614-2e8b-8057-8007-4b627d33c8f3"/><feOffset dx="0" dy="0"/><feGaussianBlur stdDeviation="2"/><feColorMatrix type="matrix" values="0 0 0 0 0.8784313725490196 0 0 0 0 0.9490196078431372 0 0 0 0 1 0 0 0 0.2 0"/><feBlend mode="normal" in2="BackgroundImageFix" result="filter_d1efd614-2e8b-8057-8007-4b627d33c8f3"/><feBlend mode="normal" in="SourceGraphic" in2="filter_d1efd614-2e8b-8057-8007-4b627d33c8f3" result="shape"/></filter></defs><g class="fills" id="fills-d1efd614-2e8b-8057-8007-4b4970206ccb"><path d="M10.500,48.001C10.500,35.818,18.014,24.897,29.394,20.536C40.774,16.176,53.666,19.280,61.812,28.342C62.378,28.948,63.171,29.291,64.000,29.291C64.829,29.291,65.622,28.948,66.188,28.342C74.310,19.220,87.233,16.075,98.641,20.446C110.048,24.816,117.558,35.789,117.500,48.001C117.500,60.248,109.475,69.393,101.450,77.415L72.068,105.828C70.051,108.143,67.137,109.481,64.066,109.500C60.995,109.519,58.064,108.219,56.018,105.930L26.550,77.415C18.525,69.393,10.500,60.301,10.500,48.001ZM17.027,66.719L50.625,66.719L53.300,61.371L64.000,85.436L74.700,48.001L82.725,66.719L110.920,66.719" filter="url(#filter-render-3)" width="24" class="lucide lucide-heart-pulse-icon lucide-heart-pulse" height="24"/></g><g width="24" class="strokes" height="24" id="strokes-d1efd614-2e8b-8057-8007-4b4970206ccb" filter="url(#filter-render-3)"><g class="stroke-shape"><path d="M10.500,48.001C10.500,35.818,18.014,24.897,29.394,20.536C40.774,16.176,53.666,19.280,61.812,28.342C62.378,28.948,63.171,29.291,64.000,29.291C64.829,29.291,65.622,28.948,66.188,28.342C74.310,19.220,87.233,16.075,98.641,20.446C110.048,24.816,117.558,35.789,117.500,48.001C117.500,60.248,109.475,69.393,101.450,77.415L72.068,105.828C70.051,108.143,67.137,109.481,64.066,109.500C60.995,109.519,58.064,108.219,56.018,105.930L26.550,77.415C18.525,69.393,10.500,60.301,10.500,48.001ZM17.027,66.719L50.625,66.719L53.300,61.371L64.000,85.436L74.700,48.001L82.725,66.719L110.920,66.719" style="fill: none; stroke-width: 2; stroke: rgb(224, 242, 255); stroke-opacity: 1;"/></g></g></g></g></g></g><g id="shape-d1efd614-2e8b-8057-8007-4b49b82feddd" data-testid="svg"><g class="fills" id="fills-d1efd614-2e8b-8057-8007-4b49b82feddd"><path d="M100.000,85.000L116.000,101.000L108.000,109.000L108.000,77.000L116.000,85.000L100.000,101.000M164.000,93.000" width="24" class="lucide lucide-bluetooth-icon lucide-bluetooth" height="24"/></g><g width="24" class="strokes" height="24" id="strokes-d1efd614-2e8b-8057-8007-4b49b82feddd"><g class="stroke-shape"><path d="M100.000,85.000L116.000,101.000L108.000,109.000L108.000,77.000L116.000,85.000L100.000,101.000M164.000,93.000" style="fill: none; stroke-width: 2; stroke: rgb(0, 255, 200); stroke-opacity: 1;"/></g></g></g></g></g></g></svg>
